<svg id="svg" version="1.1" xmlns="http://www.w3.org/2000/svg" xmlns:xlink="http://www.w3.org/1999/xlink" width="400" height="400" viewBox="0, 0, 400,400"><g id="svgg"><path id="path0" d="M176.213 38.897 C 176.122 39.174,175.936 41.920,175.798 45.000 C 174.911 64.819,175.706 62.800,168.786 62.800 C 162.693 62.800,162.800 62.690,162.800 68.931 C 162.800 75.259,162.861 75.200,156.262 75.200 C 149.814 75.200,150.000 75.009,150.000 81.651 C 150.000 87.885,150.279 87.600,144.190 87.600 C 137.122 87.600,137.600 86.664,137.600 100.503 C 137.600 113.862,138.155 112.800,131.173 112.800 C 124.571 112.800,125.200 110.845,125.200 131.358 C 125.200 142.377,125.053 148.728,124.786 149.226 C 124.410 149.929,123.904 150.000,119.248 150.000 C 114.792 150.000,114.038 150.095,113.462 150.731 C 112.382 151.925,112.450 260.759,113.531 261.738 C 114.124 262.274,115.149 262.400,118.931 262.400 C 125.852 262.400,125.200 260.431,125.200 281.338 C 125.200 302.058,124.509 300.000,131.470 300.000 C 138.125 300.000,137.600 298.932,137.600 312.470 C 137.600 325.883,137.050 324.800,143.870 324.800 C 150.144 324.800,150.000 324.653,150.000 331.062 C 150.000 337.574,150.027 337.600,156.703 337.600 C 162.896 337.600,162.800 337.498,162.800 344.027 C 162.800 350.127,162.666 350.000,169.109 350.000 C 175.296 350.000,175.200 349.899,175.200 356.427 C 175.200 360.460,175.299 361.166,175.948 361.753 C 176.752 362.481,218.554 362.452,231.200 361.715 L 236.600 361.400 236.698 356.600 C 236.852 349.091,236.737 349.200,244.460 349.200 L 249.200 349.200 249.200 344.460 C 249.200 336.737,249.091 336.852,256.600 336.698 L 261.400 336.600 261.611 331.400 C 261.785 327.105,262.042 325.272,262.543 324.739 C 262.574 324.706,265.210 324.571,268.400 324.439 L 274.200 324.200 274.415 312.200 C 274.533 305.600,274.668 300.174,274.715 300.143 C 275.517 299.603,277.069 299.387,281.400 299.211 L 286.600 299.000 286.800 281.114 C 287.040 259.626,286.237 261.853,293.815 261.669 L 299.203 261.538 299.101 206.269 L 299.000 151.000 293.518 150.800 C 289.788 150.664,287.871 150.434,287.518 150.080 C 287.116 149.677,286.955 145.574,286.800 131.680 L 286.600 113.800 281.400 113.589 C 277.079 113.414,275.454 113.187,274.721 112.657 C 274.677 112.626,274.542 107.200,274.421 100.600 L 274.200 88.600 268.713 88.400 C 261.540 88.139,261.840 88.436,261.670 81.417 L 261.539 76.061 256.183 75.930 C 249.159 75.759,249.441 76.041,249.270 69.017 L 249.139 63.661 243.783 63.530 C 236.764 63.360,237.061 63.660,236.800 56.487 L 236.600 51.000 231.118 50.800 C 224.259 50.550,224.650 50.941,224.400 44.082 L 224.200 38.600 200.289 38.497 C 181.361 38.415,176.343 38.499,176.213 38.897 M236.869 100.662 C 237.791 101.497,238.040 298.600,237.120 299.520 C 236.314 300.326,226.452 300.171,225.531 299.338 C 224.827 298.700,224.800 295.274,224.800 205.981 C 224.800 121.824,224.742 113.263,224.167 113.043 C 223.819 112.909,212.988 112.800,200.099 112.800 C 178.853 112.800,176.595 112.738,175.931 112.138 C 175.032 111.324,174.817 101.343,175.680 100.480 C 176.532 99.628,235.921 99.804,236.869 100.662 " stroke="none" fill="#fcf439" fill-rule="evenodd"></path><path id="path1" d="M173.600 29.790 L 173.600 35.980 167.300 36.090 L 161.000 36.200 160.890 42.300 L 160.779 48.400 154.590 48.400 L 148.400 48.400 148.400 54.590 L 148.400 60.779 142.300 60.890 L 136.200 61.000 136.090 67.300 L 135.980 73.600 129.790 73.600 L 123.600 73.600 123.600 79.790 L 123.600 85.980 117.300 86.090 L 111.000 86.200 110.894 98.490 L 110.788 110.779 104.694 110.890 L 98.600 111.000 98.496 129.700 L 98.392 148.400 92.196 148.400 L 86.000 148.400 86.000 206.200 L 86.000 264.000 92.200 264.000 L 98.400 264.000 98.400 282.800 L 98.400 301.600 104.600 301.600 L 110.800 301.600 110.800 314.000 L 110.800 326.400 117.200 326.400 L 123.600 326.400 123.600 332.800 L 123.600 339.200 129.800 339.200 L 136.000 339.200 136.000 345.400 L 136.000 351.600 142.200 351.600 L 148.400 351.600 148.400 357.800 L 148.400 364.000 154.600 364.000 L 160.800 364.000 160.800 370.200 L 160.800 376.400 167.200 376.400 L 173.600 376.400 173.600 382.800 L 173.600 389.200 200.000 389.200 L 226.400 389.200 226.400 382.800 L 226.400 376.400 232.800 376.400 L 239.200 376.400 239.200 370.200 L 239.200 364.000 245.400 364.000 L 251.600 364.000 251.600 357.800 L 251.600 351.600 257.800 351.600 L 264.000 351.600 264.000 345.400 L 264.000 339.200 270.200 339.200 L 276.400 339.200 276.400 332.800 L 276.400 326.400 282.800 326.400 L 289.200 326.400 289.200 314.000 L 289.200 301.600 295.400 301.600 L 301.600 301.600 301.600 282.800 L 301.600 264.000 307.800 264.000 L 314.000 264.000 314.000 206.200 L 314.000 148.400 307.804 148.400 L 301.608 148.400 301.504 129.700 L 301.400 111.000 295.306 110.890 L 289.212 110.779 289.106 98.490 L 289.000 86.200 282.700 86.090 L 276.400 85.980 276.400 79.790 L 276.400 73.600 270.210 73.600 L 264.020 73.600 263.910 67.300 L 263.800 61.000 257.700 60.890 L 251.600 60.779 251.600 54.590 L 251.600 48.400 245.410 48.400 L 239.221 48.400 239.110 42.300 L 239.000 36.200 232.700 36.090 L 226.400 35.980 226.400 29.790 L 226.400 23.600 200.000 23.600 L 173.600 23.600 173.600 29.790 M224.826 37.214 C 225.534 37.593,225.600 38.100,225.600 43.134 C 225.600 50.015,225.185 49.600,232.066 49.600 C 238.742 49.600,238.400 49.250,238.400 56.094 C 238.400 62.318,238.063 62.000,244.656 62.000 C 251.030 62.000,250.546 61.480,250.800 68.600 L 251.000 74.200 256.573 74.312 C 263.602 74.453,263.200 74.073,263.200 80.569 C 263.200 87.133,262.884 86.800,269.106 86.800 C 276.275 86.800,275.600 85.497,275.600 99.334 C 275.600 113.313,274.929 112.000,282.066 112.000 C 287.100 112.000,287.607 112.066,287.986 112.774 C 288.253 113.273,288.400 119.764,288.400 131.094 C 288.400 144.207,288.521 148.761,288.880 149.120 C 289.205 149.445,291.072 149.600,294.666 149.600 C 299.502 149.600,300.008 149.668,300.386 150.374 C 300.963 151.452,300.963 261.348,300.386 262.426 C 300.008 263.132,299.502 263.200,294.666 263.200 C 291.072 263.200,289.205 263.355,288.880 263.680 C 288.521 264.039,288.398 268.616,288.394 281.780 C 288.390 292.159,288.232 299.647,288.009 300.000 C 287.709 300.476,286.473 300.627,282.040 300.730 C 278.170 300.820,276.320 301.015,276.030 301.363 C 275.766 301.682,275.573 306.195,275.506 313.634 L 275.400 325.400 269.827 325.512 C 262.775 325.653,263.200 325.235,263.200 332.025 C 263.200 338.664,263.737 338.145,256.600 338.400 L 251.000 338.600 250.800 344.268 C 250.558 351.131,251.131 350.558,244.268 350.800 L 238.600 351.000 238.400 356.600 C 238.146 363.725,238.639 363.200,232.195 363.200 C 224.521 363.200,224.848 362.931,224.711 369.359 L 224.600 374.600 200.000 374.600 L 175.400 374.600 175.287 369.412 C 175.134 362.352,175.180 362.400,168.610 362.400 C 162.539 362.400,162.800 362.658,162.800 356.646 C 162.800 349.987,162.813 350.000,155.944 350.000 C 149.735 350.000,150.000 350.278,150.000 343.758 C 150.000 337.455,150.147 337.600,143.767 337.600 C 137.383 337.600,137.600 337.817,137.600 331.441 C 137.600 324.812,137.656 324.866,130.588 324.713 L 125.400 324.600 125.200 312.961 C 124.956 298.779,125.557 300.000,118.831 300.000 C 115.420 300.000,113.603 299.843,113.280 299.520 C 112.921 299.161,112.800 294.641,112.800 281.646 C 112.800 260.405,113.510 262.400,105.944 262.400 C 101.295 262.400,100.790 262.329,100.414 261.626 C 99.647 260.194,99.858 151.400,100.629 150.629 C 101.133 150.124,102.249 150.000,106.297 150.000 C 113.533 150.000,112.800 152.117,112.800 131.218 C 112.800 118.173,112.921 113.639,113.280 113.280 C 113.600 112.960,115.359 112.800,118.554 112.800 C 125.698 112.800,125.200 113.779,125.200 99.744 C 125.200 86.383,124.574 87.600,131.442 87.600 C 137.727 87.600,137.600 87.725,137.600 81.512 C 137.600 74.921,137.340 75.200,143.483 75.200 C 150.179 75.200,150.000 75.367,150.000 69.112 C 150.000 62.520,149.739 62.800,155.888 62.800 C 162.853 62.800,162.800 62.852,162.800 55.944 C 162.800 49.729,162.511 50.000,169.131 50.000 C 174.842 50.000,174.400 50.554,174.400 43.396 C 174.400 39.076,174.520 37.937,175.029 37.429 C 175.796 36.661,223.409 36.456,224.826 37.214 " stroke="none" fill="#040404" fill-rule="evenodd"></path><path id="path2" d="M175.029 37.429 C 174.520 37.937,174.400 39.076,174.400 43.396 C 174.400 50.554,174.842 50.000,169.131 50.000 C 162.511 50.000,162.800 49.729,162.800 55.944 C 162.800 62.852,162.853 62.800,155.888 62.800 C 149.739 62.800,150.000 62.520,150.000 69.112 C 150.000 75.367,150.179 75.200,143.483 75.200 C 137.340 75.200,137.600 74.921,137.600 81.512 C 137.600 87.725,137.727 87.600,131.442 87.600 C 124.574 87.600,125.200 86.383,125.200 99.744 C 125.200 113.779,125.698 112.800,118.554 112.800 C 115.359 112.800,113.600 112.960,113.280 113.280 C 112.921 113.639,112.800 118.173,112.800 131.218 C 112.800 152.117,113.533 150.000,106.297 150.000 C 102.249 150.000,101.133 150.124,100.629 150.629 C 99.858 151.400,99.647 260.194,100.414 261.626 C 100.790 262.329,101.295 262.400,105.944 262.400 C 113.510 262.400,112.800 260.405,112.800 281.646 C 112.800 294.641,112.921 299.161,113.280 299.520 C 113.603 299.843,115.420 300.000,118.831 300.000 C 125.557 300.000,124.956 298.779,125.200 312.961 L 125.400 324.600 130.588 324.713 C 137.656 324.866,137.600 324.812,137.600 331.441 C 137.600 337.817,137.383 337.600,143.767 337.600 C 150.147 337.600,150.000 337.455,150.000 343.758 C 150.000 350.278,149.735 350.000,155.944 350.000 C 162.813 350.000,162.800 349.987,162.800 356.646 C 162.800 362.658,162.539 362.400,168.610 362.400 C 175.180 362.400,175.134 362.352,175.287 369.412 L 175.400 374.600 200.000 374.600 L 224.600 374.600 224.711 369.359 C 224.848 362.931,224.521 363.200,232.195 363.200 C 238.639 363.200,238.146 363.725,238.400 356.600 L 238.600 351.000 244.268 350.800 C 251.131 350.558,250.558 351.131,250.800 344.268 L 251.000 338.600 256.600 338.400 C 263.737 338.145,263.200 338.664,263.200 332.025 C 263.200 325.235,262.775 325.653,269.827 325.512 L 275.400 325.400 275.506 313.634 C 275.573 306.195,275.766 301.682,276.030 301.363 C 276.320 301.015,278.170 300.820,282.040 300.730 C 286.473 300.627,287.709 300.476,288.009 300.000 C 288.232 299.647,288.390 292.159,288.394 281.780 C 288.398 268.616,288.521 264.039,288.880 263.680 C 289.205 263.355,291.072 263.200,294.666 263.200 C 299.502 263.200,300.008 263.132,300.386 262.426 C 300.963 261.348,300.963 151.452,300.386 150.374 C 300.008 149.668,299.502 149.600,294.666 149.600 C 291.072 149.600,289.205 149.445,288.880 149.120 C 288.521 148.761,288.400 144.207,288.400 131.094 C 288.400 119.764,288.253 113.273,287.986 112.774 C 287.607 112.066,287.100 112.000,282.066 112.000 C 274.929 112.000,275.600 113.313,275.600 99.334 C 275.600 85.497,276.275 86.800,269.106 86.800 C 262.884 86.800,263.200 87.133,263.200 80.569 C 263.200 74.073,263.602 74.453,256.573 74.312 L 251.000 74.200 250.800 68.600 C 250.546 61.480,251.030 62.000,244.656 62.000 C 238.063 62.000,238.400 62.318,238.400 56.094 C 238.400 49.250,238.742 49.600,232.066 49.600 C 225.185 49.600,225.600 50.015,225.600 43.134 C 225.600 38.100,225.534 37.593,224.826 37.214 C 223.409 36.456,175.796 36.661,175.029 37.429 M224.400 44.082 C 224.650 50.941,224.259 50.550,231.118 50.800 L 236.600 51.000 236.800 56.487 C 237.061 63.660,236.764 63.360,243.783 63.530 L 249.139 63.661 249.270 69.017 C 249.441 76.041,249.159 75.759,256.183 75.930 L 261.539 76.061 261.670 81.417 C 261.840 88.436,261.540 88.139,268.713 88.400 L 274.200 88.600 274.421 100.600 C 274.542 107.200,274.677 112.626,274.721 112.657 C 275.454 113.187,277.079 113.414,281.400 113.589 L 286.600 113.800 286.800 131.680 C 286.955 145.574,287.116 149.677,287.518 150.080 C 287.871 150.434,289.788 150.664,293.518 150.800 L 299.000 151.000 299.101 206.269 L 299.203 261.538 293.815 261.669 C 286.237 261.853,287.040 259.626,286.800 281.114 L 286.600 299.000 281.400 299.211 C 277.069 299.387,275.517 299.603,274.715 300.143 C 274.668 300.174,274.533 305.600,274.415 312.200 L 274.200 324.200 268.400 324.439 C 265.210 324.571,262.574 324.706,262.543 324.739 C 262.042 325.272,261.785 327.105,261.611 331.400 L 261.400 336.600 256.600 336.698 C 249.091 336.852,249.200 336.737,249.200 344.460 L 249.200 349.200 244.460 349.200 C 236.737 349.200,236.852 349.091,236.698 356.600 L 236.600 361.400 231.200 361.715 C 218.554 362.452,176.752 362.481,175.948 361.753 C 175.299 361.166,175.200 360.460,175.200 356.427 C 175.200 349.899,175.296 350.000,169.109 350.000 C 162.666 350.000,162.800 350.127,162.800 344.027 C 162.800 337.498,162.896 337.600,156.703 337.600 C 150.027 337.600,150.000 337.574,150.000 331.062 C 150.000 324.653,150.144 324.800,143.870 324.800 C 137.050 324.800,137.600 325.883,137.600 312.470 C 137.600 298.932,138.125 300.000,131.470 300.000 C 124.509 300.000,125.200 302.058,125.200 281.338 C 125.200 260.431,125.852 262.400,118.931 262.400 C 115.149 262.400,114.124 262.274,113.531 261.738 C 112.450 260.759,112.382 151.925,113.462 150.731 C 114.038 150.095,114.792 150.000,119.248 150.000 C 123.904 150.000,124.410 149.929,124.786 149.226 C 125.053 148.728,125.200 142.377,125.200 131.358 C 125.200 110.845,124.571 112.800,131.173 112.800 C 138.155 112.800,137.600 113.862,137.600 100.503 C 137.600 86.664,137.122 87.600,144.190 87.600 C 150.279 87.600,150.000 87.885,150.000 81.651 C 150.000 75.009,149.814 75.200,156.262 75.200 C 162.861 75.200,162.800 75.259,162.800 68.931 C 162.800 62.690,162.693 62.800,168.786 62.800 C 175.706 62.800,174.911 64.819,175.798 45.000 C 175.936 41.920,176.122 39.174,176.213 38.897 C 176.343 38.499,181.361 38.415,200.289 38.497 L 224.200 38.600 224.400 44.082 M175.680 100.480 C 174.817 101.343,175.032 111.324,175.931 112.138 C 176.595 112.738,178.853 112.800,200.099 112.800 C 212.988 112.800,223.819 112.909,224.167 113.043 C 224.742 113.263,224.800 121.824,224.800 205.981 C 224.800 295.274,224.827 298.700,225.531 299.338 C 226.452 300.171,236.314 300.326,237.120 299.520 C 238.040 298.600,237.791 101.497,236.869 100.662 C 235.921 99.804,176.532 99.628,175.680 100.480 " stroke="none" fill="#847c14" fill-rule="evenodd"></path></g></svg>